<svg xmlns="http://www.w3.org/2000/svg" viewBox="0 0 449.31 449.31"><defs><style>.cls-1{fill:#040000;}.cls-2{fill:#fff;}</style></defs><title>アートボード 33</title><g id="レイヤー_9" data-name="レイヤー 9"><rect class="cls-1" width="449.31" height="449.31"/><path class="cls-2" d="M132.57,285.36a6.55,6.55,0,0,1,3.58,1,7.7,7.7,0,0,1,2.59,2.95l4.25-5.49a11.84,11.84,0,0,0-4.46-3.78,13.89,13.89,0,0,0-6-1.25,13.1,13.1,0,0,0-9.28,3.42,11.16,11.16,0,0,0-3.68,8.54,11.4,11.4,0,0,0,.63,3.83,9.8,9.8,0,0,0,1.86,3.15,26.42,26.42,0,0,0,6.55,4.52l1.27.7a7.39,7.39,0,0,1,2.62,2.25,5,5,0,0,1,.87,2.89,5.19,5.19,0,0,1-1.5,3.95,5.76,5.76,0,0,1-4.16,1.44,7.9,7.9,0,0,1-4.33-1.17,10,10,0,0,1-3.24-3.6l-4.49,5.66a15.08,15.08,0,0,0,5.24,4.54,14.62,14.62,0,0,0,6.71,1.49q6.21,0,9.95-3.41a11.51,11.51,0,0,0,3.75-8.95,12,12,0,0,0-1.6-6.5q-1.59-2.52-6.06-5.14c-.33-.2-.8-.48-1.44-.84q-4.92-2.79-4.92-5.46a4.34,4.34,0,0,1,1.5-3.39A5.55,5.55,0,0,1,132.57,285.36Zm-32.51,34h8.31l5.2-39.62h-8.31Zm74.2-24.22H158.08l2-15.4h-8.3l-5.23,39.62h8.34l2.27-17.18h16.13l-2.28,17.18h8.31l5.2-39.62h-8.26ZM76.48,305.52h9.39a11.35,11.35,0,0,1-4,5.64,10.59,10.59,0,0,1-6.43,2,11.43,11.43,0,0,1-8.52-3.25,11.93,11.93,0,0,1-3.19-8.74,16,16,0,0,1,3.88-11,12.57,12.57,0,0,1,9.81-4.37,11.37,11.37,0,0,1,5.84,1.54,12.38,12.38,0,0,1,4.36,4.44l6.44-4.6a16.38,16.38,0,0,0-6.66-6.28,21.6,21.6,0,0,0-9.87-2.08,23.79,23.79,0,0,0-9.28,1.75,18.62,18.62,0,0,0-7.07,5.07,24,24,0,0,0-5.87,15.67q0,8.71,5.35,13.89T75,320.37q9.08,0,14.4-5.69t6-16.09h-18Zm134.37-26.76a23.31,23.31,0,0,0-9.34,1.85,21.22,21.22,0,0,0-7.46,5.34,23.52,23.52,0,0,0-5.82,15.4q0,8.64,5.36,13.83t14.26,5.19a23.36,23.36,0,0,0,9.61-2,21.69,21.69,0,0,0,7.68-5.75,21.16,21.16,0,0,0,4-6.89,24.77,24.77,0,0,0,1.36-8.29q0-8.48-5.36-13.6T210.85,278.76Zm7.22,30a12.59,12.59,0,0,1-9.79,4.39,11.15,11.15,0,0,1-8.42-3.27,12.06,12.06,0,0,1-3.16-8.78,15.6,15.6,0,0,1,3.9-10.86,12.63,12.63,0,0,1,9.79-4.32,11.23,11.23,0,0,1,8.45,3.24,12,12,0,0,1,3.14,8.72A15.78,15.78,0,0,1,218.07,308.79Zm76.15-29.09-20.51,39.62H283l4.28-8.53h15.07l1.68,8.53h8.79l-9.53-39.62Zm-3.76,24.6,7.36-15.94,2.94,15.94Zm92.67-4.92c0,.1,0,.29-.08.56q-.94,7.2-2.46,9.69a8.11,8.11,0,0,1-3.06,2.94,8.85,8.85,0,0,1-4.27,1,6.9,6.9,0,0,1-5.24-1.88,7.7,7.7,0,0,1-1.8-5.53q0-1.18.06-2.19c0-.67.09-1.29.16-1.87l3-22.38h-8.3l-2.39,18.11c-.28,2.27-.51,4.18-.66,5.73s-.23,2.65-.23,3.3q0,6.82,3.68,10.2t11.18,3.39a22.39,22.39,0,0,0,8.3-1.38,14.13,14.13,0,0,0,5.82-4.28,15.85,15.85,0,0,0,2.56-4.67,42.9,42.9,0,0,0,1.66-8.13L394,279.7h-8.19ZM345.35,279.7l-15.48,17.83,2.38-17.83h-8.31l-5.22,39.62h8.34l1.22-9.45L333.5,304l8.57,15.3h9.3L339,297.88l16.17-18.18Zm-83.53,15.4H245.64l2.06-15.4h-8.31l-5.22,39.62h8.33l2.27-17.18H260.9l-2.27,17.18h8.31l5.19-39.62h-8.25ZM129.46,216.66l21.61-37.76h-25v-17h26.61V151.38H126.08V137.09H115.16v14.29H90v10.55h25.14v17H92.06V181a8.42,8.42,0,0,0,8.41,8.41h30.41L121.54,206l-5-6.81H103.28l12.44,17.08-.11.2-32.07,32.3H99.22l23-23.62,13.43,18.44a12.61,12.61,0,0,0,10.18,5.18h7.38ZM60.54,248.73H71.32V197.19l5.25-2.11a9.65,9.65,0,0,0,6.05-8.94V181l-11.3,4.41v-18.3H83.63V156.46H71.32V137.09H60.54v19.37H47.88v10.68H60.54v22.58l-12.66,4.94v11.76l12.66-5.08Zm208-11.56V223.05a11.57,11.57,0,0,0-11.56-11.56H187.78v37.24h69.15A11.57,11.57,0,0,0,268.49,237.17Zm-70.73,2.67v-5.61h46.68V226H197.76v-5.75h55.83a4.91,4.91,0,0,1,4.91,4.91v9.78a4.91,4.91,0,0,1-4.91,4.91Zm80.05-41.61h-45v-5.15h22.51V185H232.8v-6.43h32.51V165.45h10.87v-8.31H265.31v-5.41a7.36,7.36,0,0,0-7.11-7.57H232.8v-7.25h-9.35v7.25H191.94v8.2h31.51v4.78H180.09v8.31h43.36v4.64H191.94v8.48h31.51V185H201.08v8.08h22.37v5.15h-45v8.86h99.36ZM233,152.46h19.74a3,3,0,0,1,3,3v1.74H233Zm0,13h22.76v4.61H233ZM401.43,145.6l-5.66-8.4H383.1l5.66,8.4ZM310.3,248.84h10.79v-73H332.2V165.12H321.09V137.43H310.3v27.69H297.72V175.8H310.3Zm79.08-43.17H378.09v4.69H329.16v10.33h48.93v20.64a7.51,7.51,0,0,0,7.51,7.51h3.78V220.69h11.38V210.36H389.38ZM393.22,163H373.41v-4.6h25.83v-9.61H373.41V137.43h-10v11.39H337v9.61h26.48V163h-25.2v38.58h62.52v-31A7.55,7.55,0,0,0,393.22,163Zm-29.78,30H347v-6.16h16.4Zm0-15.49H347v-5.88h16.4ZM391.57,193H373.41v-6.16h18.16Zm0-15.49H373.41v-5.88h15.15a3,3,0,0,1,3,3Zm-21.28,66.35-11.85-15H346.87l11.85,15Z"/></g></svg>