<?xml version="1.0" encoding="utf-8"?>
<!-- Generator: Adobe Illustrator 25.2.1, SVG Export Plug-In . SVG Version: 6.00 Build 0)  -->
<svg version="1.1" id="レイヤー_1" xmlns="http://www.w3.org/2000/svg" xmlns:xlink="http://www.w3.org/1999/xlink" x="0px"
	 y="0px" viewBox="0 0 2220 800" style="enable-background:new 0 0 2220 800;" xml:space="preserve">
<style type="text/css">
	.st0{fill:none;}
	.st1{fill:#E62E8B;}
	.st2{fill:#FFFFFF;}
	.st3{fill:#427BBF;}
</style>
<rect class="st0" width="2220" height="800"/>
<g>
	<path class="st1" d="M250.1,313.1h61v205.1c0,18.9-4.2,35.5-12.5,49.9c-8.3,14.4-20.1,25.6-35.3,33.5
		c-15.2,7.9-32.3,11.8-51.5,11.8c-31.3,0-55.7-8-73.2-23.9c-17.5-15.9-26.2-38.5-26.2-67.6h61.4c0,14.5,3.1,25.2,9.2,32.1
		c6.1,6.9,15.7,10.4,28.9,10.4c11.7,0,21-4,27.9-12c6.9-8,10.4-19.4,10.4-34.2V313.1z"/>
	<path class="st1" d="M487.2,609.3c-2.7-5.3-4.7-11.9-5.9-19.7c-14.2,15.9-32.8,23.8-55.5,23.8c-21.6,0-39.4-6.2-53.6-18.7
		c-14.2-12.5-21.3-28.2-21.3-47.2c0-23.3,8.6-41.2,25.9-53.7c17.3-12.5,42.3-18.8,75-18.9h27.1v-12.6c0-10.2-2.6-18.3-7.8-24.4
		c-5.2-6.1-13.5-9.2-24.7-9.2c-9.9,0-17.7,2.4-23.3,7.1c-5.6,4.7-8.4,11.3-8.4,19.5h-58.8c0-12.7,3.9-24.5,11.8-35.4
		c7.9-10.8,19-19.4,33.4-25.5c14.4-6.2,30.5-9.3,48.4-9.3c27.1,0,48.7,6.8,64.6,20.4c15.9,13.6,23.9,32.8,23.9,57.5v95.4
		c0.1,20.9,3.1,36.7,8.7,47.4v3.5H487.2z M438.5,568.4c8.7,0,16.7-1.9,24-5.8c7.3-3.9,12.7-9.1,16.3-15.6v-37.8h-22
		c-29.4,0-45.1,10.2-47,30.5l-0.2,3.5c0,7.3,2.6,13.4,7.7,18.1C422.5,566,429.6,568.4,438.5,568.4z"/>
	<path class="st1" d="M574.5,497.6c0-33.8,8-61,24.1-81.6c16.1-20.6,37.7-30.9,65-30.9c24.1,0,42.9,8.3,56.4,24.8l2.4-20.8h53.3V602
		c0,19.3-4.4,36-13.1,50.3c-8.7,14.2-21.1,25.1-36.9,32.6c-15.9,7.5-34.5,11.2-55.7,11.2c-16.1,0-31.9-3.2-47.2-9.7
		c-15.3-6.4-26.9-14.8-34.8-24.9l26-35.8c14.6,16.4,32.4,24.6,53.3,24.6c15.6,0,27.7-4.2,36.4-12.5c8.7-8.3,13-20.2,13-35.5v-11.8
		c-13.6,15.3-31.4,23-53.5,23c-26.4,0-47.8-10.3-64.2-31c-16.3-20.7-24.5-48.1-24.5-82.3V497.6z M633.2,502c0,20,4,35.6,12,47
		c8,11.3,19,17,33,17c17.9,0,30.7-6.7,38.5-20.2v-92.7c-7.9-13.4-20.5-20.2-38-20.2c-14.1,0-25.2,5.8-33.3,17.3
		C637.3,461.8,633.2,479,633.2,502z"/>
	<path class="st1" d="M952.7,586.9c-14.5,17.6-34.6,26.4-60.2,26.4c-23.6,0-41.6-6.8-54-20.3c-12.4-13.6-18.8-33.4-19-59.6V389.2
		h58.8v142.4c0,22.9,10.4,34.4,31.3,34.4c19.9,0,33.6-6.9,41.1-20.8v-156h59v220.1h-55.3L952.7,586.9z"/>
	<path class="st1" d="M1071.8,296.8V330c0.1,9.6,1.5,18.8,4,27.6c2.5,8.7,7.2,18.9,14.1,30.4l-27.7,16.1
		c-11.1-9.6-20.1-21.6-27-35.8c-6.9-14.2-10.3-27.6-10.3-40.1v-31.3H1071.8z"/>
	<path class="st1" d="M1179.9,613.4c-32.3,0-58.6-9.9-78.8-29.7c-20.3-19.8-30.4-46.2-30.4-79.1v-5.7c0-22.1,4.3-41.9,12.8-59.3
		c8.5-17.4,20.7-30.9,36.3-40.3c15.7-9.4,33.5-14.1,53.6-14.1c30.1,0,53.8,9.5,71.1,28.5c17.3,19,25.9,45.9,25.9,80.8v24h-140.2
		c1.9,14.4,7.6,25.9,17.2,34.6c9.6,8.7,21.7,13,36.3,13c22.7,0,40.4-8.2,53.1-24.6l28.9,32.3c-8.8,12.5-20.8,22.2-35.8,29.2
		C1214.9,609.9,1198.2,613.4,1179.9,613.4z M1173.2,432.5c-11.7,0-21.1,4-28.4,11.9c-7.3,7.9-11.9,19.2-13.9,33.9h81.8v-4.7
		c-0.3-13.1-3.8-23.2-10.6-30.3C1195.3,436.1,1185.6,432.5,1173.2,432.5z"/>
	<path class="st1" d="M1282.8,404l-27.7-16.1c11.7-18.3,17.7-37.2,18.1-56.8v-34.4h46.8v31.5c0,12.2-3.4,25.4-10.2,39.7
		C1303,382.3,1294,394.3,1282.8,404z"/>
	<path class="st1" d="M1464.3,444.3c-8-1.1-15.1-1.6-21.2-1.6c-22.2,0-36.8,7.5-43.7,22.6v144h-58.8V389.2h55.5l1.6,26.2
		c11.8-20.2,28.1-30.3,49-30.3c6.5,0,12.6,0.9,18.3,2.6L1464.3,444.3z"/>
</g>
<g>
	<path class="st2" d="M2109.6,115.3l-2.5-9.3l-9.3-2.5c-59.6-15.9-123.3-0.6-169,39.9c-28.5-11.3-59.5-17.5-91.9-17.5
		c-32.4,0-63.4,6.2-91.9,17.5c-45.7-40.5-109.5-55.8-169-39.9l-9.3,2.5l-2.5,9.3c-15.9,59.6-0.6,123.4,40.1,169.2
		c-11.2,28.3-17.3,59.2-17.3,91.4v70c0,65.2,40.9,120.9,98.3,143.1c7.1,17.7,19.2,32.9,34.5,43.9c6.1,11.1,13.7,21.4,22.9,30.6
		c25.2,25.2,58.7,39.1,94.3,39.1c35.6,0,69.1-13.9,94.3-39.1c9.2-9.2,16.8-19.5,22.9-30.6c15.3-11,27.4-26.2,34.5-43.9
		c57.4-22.2,98.3-77.9,98.3-143.1l0-70c0-32.3-6.1-63.1-17.3-91.4C2110.1,238.8,2125.5,175,2109.6,115.3z"/>
</g>
<g>
	<path class="st3" d="M2109.6,115.3l-2.5-9.3l-9.3-2.5c-59.6-15.9-123.3-0.6-169,39.9c-28.5-11.3-59.5-17.5-91.9-17.5
		c-32.4,0-63.4,6.2-91.9,17.5c-45.7-40.5-109.5-55.8-169-39.9l-9.3,2.5l-2.5,9.3c-15.9,59.6-0.6,123.4,40.1,169.2
		c-11.2,28.3-17.3,59.2-17.3,91.4v70c0,65.2,40.9,120.9,98.3,143.1c7.1,17.7,19.2,32.9,34.5,43.9c6.1,11.1,13.7,21.4,22.9,30.6
		c25.2,25.2,58.7,39.1,94.3,39.1c35.6,0,69.1-13.9,94.3-39.1c9.2-9.2,16.8-19.5,22.9-30.6c15.3-11,27.4-26.2,34.5-43.9
		c57.4-22.2,98.3-77.9,98.3-143.1l0-70c0-32.3-6.1-63.1-17.3-91.4C2110.1,238.8,2125.5,175,2109.6,115.3z M1594.1,133.5
		c41.3-8.1,84.1,1.5,117.7,26c-7.8,4.5-15.3,9.5-22.6,14.8c-19.6-12.2-42.2-18.7-65.8-18.7h0l0,33.3h0c13.6,0,26.7,2.9,38.6,8.5
		c-16.2,15.9-30.4,34-41.8,53.8C1595.6,217.7,1585.9,174.8,1594.1,133.5z M1836.8,669.3c-20.5,0-40.1-6.2-56.6-17.5
		c20.6-0.5,40.2-7.1,56.6-19.1c16.4,12,36,18.7,56.6,19.1C1876.9,663.2,1857.3,669.3,1836.8,669.3z M1808,518.5h57.6
		c-5.8,9.9-16.5,16.7-28.8,16.7C1824.5,535.1,1813.8,528.4,1808,518.5z M2053.5,446c0,43.4-23.2,81.6-57.8,102.6
		c-0.5-16.4-5.1-32.6-13.3-46.8l-28.9,16.7c5.8,10.1,8.9,21.6,8.9,33.3c0,36.8-29.9,66.7-66.7,66.7c-15.6,0-30.4-5.3-42.3-15.1v-37
		c26.1-6.7,46-29,49.5-56.2c0.3-2.7,0.5-5.5,0.5-8.3v-50c0-7.8,1.8-15.1,5-21.7c4.9-10.2,13.1-18.4,23.3-23.3c6.6-3.2,13.9-5,21.7-5
		h40v-33.3h-40c-18.7,0-36.1,6.2-50,16.7V360c0-18.4,15-33.3,33.3-33.3v-33.3c-16.8,0-32.1,6.2-43.9,16.5
		c-14,12.2-22.8,30.2-22.8,50.1v125.2h-66.7V359.3c0-19.8-8.7-37.6-22.5-49.9c-11.8-10.5-27.3-16.8-44.2-16.8V326
		c18.4,0,33.3,15,33.3,33.3v25.9c-13.9-10.5-31.3-16.7-50-16.7h-40v33.3h40c7.8,0,15.1,1.8,21.7,5c10.2,4.9,18.4,13.1,23.3,23.3
		c3.2,6.6,5,13.9,5,21.7v50c0,2.8,0.2,5.6,0.5,8.3c3.4,27.3,23.4,49.5,49.5,56.2v37c-11.9,9.8-26.7,15.1-42.3,15.1
		c-36.8,0-66.7-29.9-66.7-66.7c0-11.7,3.1-23.2,8.9-33.3l-28.9-16.7c-8.2,14.2-12.8,30.4-13.3,46.8c-34.7-21.1-57.8-59.2-57.8-102.6
		v-70c0-119.5,97.2-216.7,216.7-216.7c119.4,0,216.5,97,216.7,216.4V446z M2011.7,197.5c11.9-5.6,25.1-8.5,38.6-8.5h0l0-33.3h0
		c-23.6,0-46.3,6.5-65.8,18.7c-7.2-5.3-14.8-10.3-22.6-14.8c33.6-24.5,76.5-34.2,117.7-26c8.2,41.3-1.6,84.1-26.1,117.8
		C2042,231.5,2027.9,213.4,2011.7,197.5z"/>
	<rect x="1933.5" y="448.5" class="st3" width="33.3" height="33.3"/>
	<rect x="2000.1" y="428.5" class="st3" width="33.3" height="33.3"/>
	<rect x="1970.1" y="293.3" class="st3" width="33.3" height="33.3"/>
	<rect x="1920.1" y="220" class="st3" width="33.3" height="33.3"/>
	<rect x="1853.5" y="243.3" class="st3" width="33.3" height="33.3"/>
	<rect x="1706.8" y="448.5" class="st3" width="33.3" height="33.3"/>
	<rect x="1640.1" y="428.5" class="st3" width="33.3" height="33.3"/>
	<rect x="1670.1" y="293.3" class="st3" width="33.3" height="33.3"/>
	<rect x="1720.1" y="220" class="st3" width="33.3" height="33.3"/>
	<rect x="1786.8" y="243.3" class="st3" width="33.3" height="33.3"/>
</g>
<g>
	<path class="st3" d="M272.6,200.3h7.3V230c0,4.1-1.3,7.3-3.8,9.7c-2.5,2.4-5.9,3.6-10,3.6c-4.4,0-7.8-1.1-10.2-3.3
		c-2.4-2.2-3.6-5.3-3.6-9.3h7.3c0,2.2,0.6,3.9,1.7,5.1s2.7,1.7,4.8,1.7c2,0,3.6-0.7,4.7-2c1.2-1.3,1.8-3.1,1.8-5.4V200.3z"/>
	<path class="st3" d="M306.5,242.6c-0.3-0.6-0.6-1.6-0.8-2.9c-2.2,2.3-5,3.5-8.3,3.5c-3.2,0-5.7-0.9-7.7-2.7c-2-1.8-3-4-3-6.7
		c0-3.4,1.2-5.9,3.7-7.7c2.5-1.8,6.1-2.7,10.7-2.7h4.3v-2.1c0-1.6-0.5-2.9-1.4-3.9c-0.9-1-2.3-1.5-4.2-1.5c-1.6,0-2.9,0.4-4,1.2
		c-1,0.8-1.5,1.8-1.5,3.1h-7.1c0-1.7,0.6-3.3,1.7-4.8c1.1-1.5,2.7-2.7,4.7-3.5s4.2-1.3,6.6-1.3c3.7,0,6.6,0.9,8.8,2.8
		c2.2,1.9,3.3,4.5,3.4,7.8v14.2c0,2.8,0.4,5.1,1.2,6.8v0.5H306.5z M298.7,237.5c1.4,0,2.7-0.3,3.9-1c1.2-0.7,2.2-1.6,2.8-2.7v-5.9
		h-3.8c-2.6,0-4.6,0.5-5.9,1.4c-1.3,0.9-2,2.2-2,3.9c0,1.4,0.5,2.4,1.4,3.2C296,237.1,297.2,237.5,298.7,237.5z"/>
	<path class="st3" d="M347.5,227.2c0,4.9-1.1,8.8-3.3,11.7c-2.2,2.9-5.2,4.3-8.9,4.3c-3.5,0-6.2-1.1-8.3-3.4v14.9h-7.1v-43.6h6.5
		l0.3,3.2c2.1-2.5,4.9-3.8,8.5-3.8c3.8,0,6.9,1.4,9,4.3s3.3,6.8,3.3,11.9V227.2z M340.4,226.6c0-3.1-0.6-5.6-1.9-7.5s-3-2.8-5.4-2.8
		c-2.9,0-5,1.2-6.2,3.6v14c1.3,2.4,3.4,3.7,6.3,3.7c2.2,0,4-0.9,5.3-2.7C339.8,233,340.4,230.3,340.4,226.6z"/>
	<path class="st3" d="M372.2,242.6c-0.3-0.6-0.6-1.6-0.8-2.9c-2.2,2.3-5,3.5-8.3,3.5c-3.2,0-5.7-0.9-7.7-2.7c-2-1.8-3-4-3-6.7
		c0-3.4,1.2-5.9,3.7-7.7c2.5-1.8,6.1-2.7,10.7-2.7h4.3v-2.1c0-1.6-0.5-2.9-1.4-3.9c-0.9-1-2.3-1.5-4.2-1.5c-1.6,0-2.9,0.4-4,1.2
		c-1,0.8-1.5,1.8-1.5,3.1h-7.1c0-1.7,0.6-3.3,1.7-4.8c1.1-1.5,2.7-2.7,4.7-3.5s4.2-1.3,6.6-1.3c3.7,0,6.6,0.9,8.8,2.8
		c2.2,1.9,3.3,4.5,3.4,7.8v14.2c0,2.8,0.4,5.1,1.2,6.8v0.5H372.2z M364.5,237.5c1.4,0,2.7-0.3,3.9-1c1.2-0.7,2.2-1.6,2.8-2.7v-5.9
		h-3.8c-2.6,0-4.6,0.5-5.9,1.4c-1.3,0.9-2,2.2-2,3.9c0,1.4,0.5,2.4,1.4,3.2C361.8,237.1,363,237.5,364.5,237.5z"/>
	<path class="st3" d="M392.2,211.2l0.2,3.6c2.3-2.8,5.4-4.2,9.2-4.2c6.6,0,9.9,3.8,10,11.3v20.8h-7.1v-20.4c0-2-0.4-3.5-1.3-4.4
		c-0.9-1-2.3-1.4-4.2-1.4c-2.9,0-5,1.3-6.4,3.9v22.4h-7.1v-31.5H392.2z"/>
	<path class="st3" d="M466.8,237.1c-1.5,2-3.7,3.5-6.4,4.5c-2.7,1-5.8,1.5-9.3,1.5c-3.5,0-6.7-0.8-9.4-2.4c-2.7-1.6-4.8-3.9-6.3-6.9
		c-1.5-3-2.3-6.5-2.3-10.5v-3.3c0-6.4,1.5-11.4,4.6-15c3.1-3.6,7.3-5.4,12.8-5.4c4.7,0,8.5,1.2,11.2,3.5c2.8,2.3,4.4,5.7,5,10.1
		h-7.2c-0.8-5.1-3.8-7.7-8.9-7.7c-3.3,0-5.8,1.2-7.5,3.6c-1.7,2.4-2.6,5.9-2.7,10.4v3.3c0,4.6,1,8.1,2.9,10.7c1.9,2.5,4.6,3.8,8,3.8
		c3.8,0,6.4-0.9,8-2.6v-8.3h-8.7v-5.6h16.1V237.1z"/>
	<path class="st3" d="M472.9,226.6c0-3.1,0.6-5.9,1.8-8.3c1.2-2.5,2.9-4.4,5.1-5.7s4.8-2,7.6-2c4.2,0,7.7,1.4,10.3,4.1
		c2.6,2.7,4.1,6.4,4.3,10.9l0,1.7c0,3.1-0.6,5.9-1.8,8.3c-1.2,2.4-2.9,4.3-5.1,5.7c-2.2,1.3-4.8,2-7.7,2c-4.4,0-8-1.5-10.7-4.4
		c-2.7-3-4-6.9-4-11.8V226.6z M480,227.2c0,3.2,0.7,5.8,2,7.6s3.2,2.7,5.6,2.7s4.2-0.9,5.6-2.8c1.3-1.9,2-4.6,2-8.2
		c0-3.2-0.7-5.7-2.1-7.6c-1.4-1.9-3.2-2.8-5.6-2.8c-2.3,0-4.1,0.9-5.5,2.7C480.6,220.8,480,223.6,480,227.2z"/>
	<path class="st3" d="M506.8,226.6c0-3.1,0.6-5.9,1.8-8.3c1.2-2.5,2.9-4.4,5.1-5.7c2.2-1.3,4.8-2,7.6-2c4.2,0,7.7,1.4,10.3,4.1
		c2.6,2.7,4.1,6.4,4.3,10.9l0,1.7c0,3.1-0.6,5.9-1.8,8.3c-1.2,2.4-2.9,4.3-5.1,5.7c-2.2,1.3-4.8,2-7.7,2c-4.4,0-8-1.5-10.7-4.4
		c-2.7-3-4-6.9-4-11.8V226.6z M513.9,227.2c0,3.2,0.7,5.8,2,7.6s3.2,2.7,5.6,2.7s4.2-0.9,5.6-2.8c1.3-1.9,2-4.6,2-8.2
		c0-3.2-0.7-5.7-2.1-7.6c-1.4-1.9-3.2-2.8-5.6-2.8c-2.3,0-4.1,0.9-5.5,2.7C514.6,220.8,513.9,223.6,513.9,227.2z"/>
	<path class="st3" d="M540.8,226.7c0-4.9,1.1-8.8,3.4-11.7c2.3-2.9,5.3-4.4,9.1-4.4c3.6,0,6.4,1.3,8.5,3.8l0.3-3.2h6.4v30.5
		c0,4.1-1.3,7.4-3.9,9.8c-2.6,2.4-6,3.6-10.4,3.6c-2.3,0-4.6-0.5-6.8-1.4s-3.9-2.2-5-3.8l3.3-4.2c2.2,2.6,4.8,3.9,8,3.9
		c2.3,0,4.2-0.6,5.6-1.9c1.4-1.3,2-3.1,2-5.6v-2.1c-2,2.3-4.8,3.4-8.1,3.4c-3.7,0-6.7-1.5-9-4.4C542,235.9,540.8,231.8,540.8,226.7z
		 M547.9,227.3c0,3.2,0.6,5.6,1.9,7.5c1.3,1.8,3.1,2.7,5.4,2.7c2.9,0,5-1.2,6.3-3.7v-13.8c-1.3-2.4-3.4-3.6-6.3-3.6
		c-2.3,0-4.1,0.9-5.4,2.8S547.9,223.7,547.9,227.3z"/>
	<path class="st3" d="M583.4,242.6h-7.1V198h7.1V242.6z"/>
	<path class="st3" d="M604.9,243.2c-4.5,0-8.1-1.4-10.9-4.2c-2.8-2.8-4.2-6.6-4.2-11.3v-0.9c0-3.1,0.6-5.9,1.8-8.4
		c1.2-2.5,2.9-4.4,5.1-5.8s4.6-2.1,7.3-2.1c4.3,0,7.6,1.4,9.9,4.1c2.3,2.7,3.5,6.6,3.5,11.6v2.9H597c0.2,2.6,1.1,4.7,2.6,6.2
		c1.5,1.5,3.4,2.3,5.7,2.3c3.2,0,5.9-1.3,7.9-3.9l3.8,3.6c-1.3,1.9-2.9,3.3-5,4.4C609.9,242.7,607.5,243.2,604.9,243.2z
		 M604.1,216.3c-1.9,0-3.5,0.7-4.7,2c-1.2,1.4-2,3.2-2.3,5.7h13.5v-0.5c-0.2-2.4-0.8-4.2-1.9-5.4C607.6,216.9,606,216.3,604.1,216.3
		z"/>
	<path class="st3" d="M670.9,228.8c-0.4,4.5-2.1,8-5,10.6s-6.8,3.8-11.6,3.8c-3.4,0-6.3-0.8-8.9-2.4c-2.6-1.6-4.6-3.9-5.9-6.8
		s-2.1-6.4-2.2-10.3v-4c0-4,0.7-7.5,2.1-10.6c1.4-3,3.4-5.4,6.1-7s5.7-2.5,9.2-2.5c4.7,0,8.4,1.3,11.3,3.8c2.9,2.5,4.5,6.1,5,10.8
		h-7.3c-0.3-3-1.2-5.2-2.7-6.6c-1.4-1.3-3.5-2-6.3-2c-3.2,0-5.7,1.2-7.4,3.5s-2.6,5.8-2.6,10.3v3.8c0,4.6,0.8,8.1,2.5,10.5
		c1.6,2.4,4,3.6,7.2,3.6c2.9,0,5.1-0.6,6.5-1.9s2.4-3.5,2.8-6.5H670.9z"/>
	<path class="st3" d="M684.3,242.6h-7.1V198h7.1V242.6z"/>
	<path class="st3" d="M690.6,226.6c0-3.1,0.6-5.9,1.8-8.3c1.2-2.5,2.9-4.4,5.1-5.7s4.8-2,7.6-2c4.2,0,7.7,1.4,10.3,4.1
		c2.6,2.7,4.1,6.4,4.3,10.9l0,1.7c0,3.1-0.6,5.9-1.8,8.3c-1.2,2.4-2.9,4.3-5.1,5.7c-2.2,1.3-4.8,2-7.7,2c-4.4,0-8-1.5-10.7-4.4
		c-2.7-3-4-6.9-4-11.8V226.6z M697.7,227.2c0,3.2,0.7,5.8,2,7.6s3.2,2.7,5.6,2.7s4.2-0.9,5.6-2.8c1.3-1.9,2-4.6,2-8.2
		c0-3.2-0.7-5.7-2.1-7.6c-1.4-1.9-3.2-2.8-5.6-2.8c-2.3,0-4.1,0.9-5.5,2.7C698.4,220.8,697.7,223.6,697.7,227.2z"/>
	<path class="st3" d="M745,239.6c-2.1,2.4-5,3.7-8.8,3.7c-3.4,0-6-1-7.8-3c-1.8-2-2.6-4.9-2.6-8.7v-20.4h7.1v20.3c0,4,1.7,6,5,6
		c3.4,0,5.8-1.2,7-3.7v-22.6h7.1v31.5h-6.7L745,239.6z"/>
	<path class="st3" d="M757.7,226.7c0-4.8,1.1-8.7,3.4-11.7c2.2-2.9,5.3-4.4,9-4.4c3.3,0,6,1.2,8.1,3.5V198h7.1v44.7h-6.4l-0.3-3.3
		c-2.1,2.6-4.9,3.8-8.5,3.8c-3.7,0-6.7-1.5-8.9-4.5C758.8,235.8,757.7,231.8,757.7,226.7z M764.7,227.3c0,3.2,0.6,5.7,1.8,7.5
		c1.2,1.8,3,2.7,5.3,2.7c2.9,0,5-1.3,6.3-3.9v-13.4c-1.3-2.5-3.4-3.8-6.3-3.8c-2.3,0-4.1,0.9-5.3,2.7
		C765.4,220.9,764.7,223.6,764.7,227.3z"/>
	<path class="st3" d="M839.1,200.3v28.3c0,4.5-1.4,8.1-4.3,10.7c-2.9,2.6-6.7,3.9-11.5,3.9c-4.8,0-8.7-1.3-11.5-3.9
		s-4.3-6.2-4.3-10.8v-28.3h7.3v28.3c0,2.8,0.7,5,2.2,6.5c1.4,1.5,3.5,2.2,6.3,2.2c5.7,0,8.5-3,8.5-9v-28.1H839.1z"/>
	<path class="st3" d="M864,234.1c0-1.3-0.5-2.2-1.6-2.9c-1-0.7-2.8-1.2-5.2-1.7c-2.4-0.5-4.4-1.1-6-1.9c-3.5-1.7-5.3-4.2-5.3-7.4
		c0-2.7,1.1-5,3.4-6.8c2.3-1.8,5.2-2.7,8.7-2.7c3.8,0,6.8,0.9,9.1,2.8c2.3,1.9,3.5,4.3,3.5,7.2h-7.1c0-1.4-0.5-2.5-1.5-3.4
		c-1-0.9-2.3-1.4-4-1.4c-1.6,0-2.8,0.4-3.8,1.1c-1,0.7-1.5,1.7-1.5,2.9c0,1.1,0.5,1.9,1.4,2.5c0.9,0.6,2.8,1.2,5.5,1.8
		c2.8,0.6,5,1.3,6.5,2.2c1.6,0.8,2.8,1.9,3.5,3s1.1,2.6,1.1,4.3c0,2.8-1.2,5.1-3.5,6.9c-2.3,1.8-5.4,2.6-9.2,2.6
		c-2.6,0-4.9-0.5-6.9-1.4c-2-0.9-3.6-2.2-4.7-3.8c-1.1-1.6-1.7-3.4-1.7-5.3h6.9c0.1,1.7,0.7,3,1.9,3.9c1.2,0.9,2.7,1.4,4.6,1.4
		c1.9,0,3.3-0.4,4.2-1.1S864,235.2,864,234.1z"/>
	<path class="st3" d="M890.9,243.2c-4.5,0-8.1-1.4-10.9-4.2c-2.8-2.8-4.2-6.6-4.2-11.3v-0.9c0-3.1,0.6-5.9,1.8-8.4
		c1.2-2.5,2.9-4.4,5.1-5.8s4.6-2.1,7.3-2.1c4.3,0,7.6,1.4,9.9,4.1c2.3,2.7,3.5,6.6,3.5,11.6v2.9H883c0.2,2.6,1.1,4.7,2.6,6.2
		c1.5,1.5,3.4,2.3,5.7,2.3c3.2,0,5.9-1.3,7.9-3.9l3.8,3.6c-1.3,1.9-2.9,3.3-5,4.4C895.9,242.7,893.5,243.2,890.9,243.2z
		 M890.1,216.3c-1.9,0-3.5,0.7-4.7,2c-1.2,1.4-2,3.2-2.3,5.7h13.5v-0.5c-0.2-2.4-0.8-4.2-1.9-5.4C893.6,216.9,892,216.3,890.1,216.3
		z"/>
	<path class="st3" d="M925.5,217.6c-0.9-0.2-1.9-0.2-2.9-0.2c-3.2,0-5.4,1.2-6.5,3.7v21.5H909v-31.5h6.8l0.2,3.5
		c1.7-2.7,4.1-4.1,7.1-4.1c1,0,1.8,0.1,2.5,0.4L925.5,217.6z"/>
	<path class="st3" d="M978,237.1c-1.5,2-3.7,3.5-6.4,4.5s-5.8,1.5-9.3,1.5c-3.5,0-6.7-0.8-9.4-2.4c-2.7-1.6-4.8-3.9-6.3-6.9
		c-1.5-3-2.3-6.5-2.3-10.5v-3.3c0-6.4,1.5-11.4,4.6-15s7.3-5.4,12.8-5.4c4.7,0,8.5,1.2,11.2,3.5c2.8,2.3,4.4,5.7,5,10.1h-7.2
		c-0.8-5.1-3.8-7.7-8.9-7.7c-3.3,0-5.8,1.2-7.5,3.6c-1.7,2.4-2.6,5.9-2.7,10.4v3.3c0,4.6,1,8.1,2.9,10.7s4.6,3.8,8,3.8
		c3.8,0,6.4-0.9,8-2.6v-8.3h-8.7v-5.6H978V237.1z"/>
	<path class="st3" d="M1001.9,217.6c-0.9-0.2-1.9-0.2-2.9-0.2c-3.2,0-5.4,1.2-6.5,3.7v21.5h-7.1v-31.5h6.8l0.2,3.5
		c1.7-2.7,4.1-4.1,7.1-4.1c1,0,1.8,0.1,2.5,0.4L1001.9,217.6z"/>
	<path class="st3" d="M1004,226.6c0-3.1,0.6-5.9,1.8-8.3c1.2-2.5,2.9-4.4,5.2-5.7c2.2-1.3,4.8-2,7.6-2c4.2,0,7.7,1.4,10.3,4.1
		c2.6,2.7,4.1,6.4,4.3,10.9l0,1.7c0,3.1-0.6,5.9-1.8,8.3c-1.2,2.4-2.9,4.3-5.1,5.7c-2.2,1.3-4.8,2-7.7,2c-4.4,0-8-1.5-10.7-4.4
		c-2.7-3-4-6.9-4-11.8V226.6z M1011,227.2c0,3.2,0.7,5.8,2,7.6c1.3,1.8,3.2,2.7,5.6,2.7c2.4,0,4.2-0.9,5.6-2.8c1.3-1.9,2-4.6,2-8.2
		c0-3.2-0.7-5.7-2.1-7.6c-1.4-1.9-3.2-2.8-5.6-2.8c-2.3,0-4.1,0.9-5.5,2.7C1011.7,220.8,1011,223.6,1011,227.2z"/>
	<path class="st3" d="M1058.3,239.6c-2.1,2.4-5,3.7-8.8,3.7c-3.4,0-6-1-7.8-3c-1.8-2-2.6-4.9-2.6-8.7v-20.4h7.1v20.3c0,4,1.7,6,5,6
		c3.4,0,5.8-1.2,7-3.7v-22.6h7.1v31.5h-6.7L1058.3,239.6z"/>
	<path class="st3" d="M1099.9,227.2c0,4.9-1.1,8.8-3.3,11.7c-2.2,2.9-5.2,4.3-8.9,4.3c-3.5,0-6.2-1.1-8.3-3.4v14.9h-7.1v-43.6h6.5
		l0.3,3.2c2.1-2.5,4.9-3.8,8.5-3.8c3.8,0,6.9,1.4,9,4.3s3.3,6.8,3.3,11.9V227.2z M1092.8,226.6c0-3.1-0.6-5.6-1.9-7.5
		c-1.3-1.8-3-2.8-5.4-2.8c-2.9,0-5,1.2-6.2,3.6v14c1.3,2.4,3.4,3.7,6.3,3.7c2.2,0,4-0.9,5.3-2.7
		C1092.2,233,1092.8,230.3,1092.8,226.6z"/>
	<path class="st3" d="M1123.2,242.6v-26.2h-4.8v-5.2h4.8v-2.9c0-3.5,1-6.2,2.9-8.1s4.7-2.9,8.1-2.9c1.2,0,2.6,0.2,4,0.5l-0.2,5.5
		c-0.8-0.2-1.7-0.2-2.7-0.2c-3.4,0-5.1,1.7-5.1,5.2v2.8h6.4v5.2h-6.4v26.2H1123.2z"/>
	<path class="st3" d="M1140.5,226.6c0-3.1,0.6-5.9,1.8-8.3c1.2-2.5,2.9-4.4,5.2-5.7c2.2-1.3,4.8-2,7.6-2c4.2,0,7.7,1.4,10.3,4.1
		c2.6,2.7,4.1,6.4,4.3,10.9l0,1.7c0,3.1-0.6,5.9-1.8,8.3c-1.2,2.4-2.9,4.3-5.1,5.7c-2.2,1.3-4.8,2-7.7,2c-4.4,0-8-1.5-10.7-4.4
		c-2.7-3-4-6.9-4-11.8V226.6z M1147.6,227.2c0,3.2,0.7,5.8,2,7.6c1.3,1.8,3.2,2.7,5.6,2.7c2.4,0,4.2-0.9,5.6-2.8
		c1.3-1.9,2-4.6,2-8.2c0-3.2-0.7-5.7-2.1-7.6s-3.2-2.8-5.6-2.8c-2.3,0-4.1,0.9-5.5,2.7C1148.2,220.8,1147.6,223.6,1147.6,227.2z"/>
	<path class="st3" d="M1192.2,217.6c-0.9-0.2-1.9-0.2-2.9-0.2c-3.2,0-5.4,1.2-6.5,3.7v21.5h-7.1v-31.5h6.8l0.2,3.5
		c1.7-2.7,4.1-4.1,7.1-4.1c1,0,1.8,0.1,2.5,0.4L1192.2,217.6z"/>
	<path class="st3" d="M1237,223.7h-17.4v13h20.3v5.9h-27.7v-42.4h27.5v5.9h-20.1v11.7h17.4V223.7z"/>
	<path class="st3" d="M1251.8,211.2l0.2,3.6c2.3-2.8,5.4-4.2,9.2-4.2c6.6,0,9.9,3.8,10,11.3v20.8h-7.1v-20.4c0-2-0.4-3.5-1.3-4.4
		c-0.9-1-2.3-1.4-4.2-1.4c-2.9,0-5,1.3-6.4,3.9v22.4h-7.1v-31.5H1251.8z"/>
	<path class="st3" d="M1287.2,203.5v7.7h5.6v5.2h-5.6V234c0,1.2,0.2,2.1,0.7,2.6c0.5,0.5,1.3,0.8,2.5,0.8c0.8,0,1.6-0.1,2.5-0.3v5.5
		c-1.6,0.4-3.2,0.7-4.7,0.7c-5.4,0-8.1-3-8.1-9v-17.8h-5.2v-5.2h5.2v-7.7H1287.2z"/>
	<path class="st3" d="M1312,243.2c-4.5,0-8.1-1.4-10.9-4.2c-2.8-2.8-4.2-6.6-4.2-11.3v-0.9c0-3.1,0.6-5.9,1.8-8.4
		c1.2-2.5,2.9-4.4,5.1-5.8s4.6-2.1,7.3-2.1c4.3,0,7.6,1.4,9.9,4.1c2.3,2.7,3.5,6.6,3.5,11.6v2.9h-20.6c0.2,2.6,1.1,4.7,2.6,6.2
		s3.4,2.3,5.7,2.3c3.2,0,5.9-1.3,7.9-3.9l3.8,3.6c-1.3,1.9-2.9,3.3-5,4.4C1317,242.7,1314.6,243.2,1312,243.2z M1311.2,216.3
		c-1.9,0-3.5,0.7-4.7,2c-1.2,1.4-2,3.2-2.3,5.7h13.5v-0.5c-0.2-2.4-0.8-4.2-1.9-5.4C1314.7,216.9,1313.1,216.3,1311.2,216.3z"/>
	<path class="st3" d="M1346.6,217.6c-0.9-0.2-1.9-0.2-2.9-0.2c-3.2,0-5.4,1.2-6.5,3.7v21.5h-7.1v-31.5h6.8l0.2,3.5
		c1.7-2.7,4.1-4.1,7.1-4.1c1,0,1.8,0.1,2.5,0.4L1346.6,217.6z"/>
	<path class="st3" d="M1378.6,227.2c0,4.9-1.1,8.8-3.3,11.7c-2.2,2.9-5.2,4.3-8.9,4.3c-3.5,0-6.2-1.1-8.3-3.4v14.9h-7.1v-43.6h6.5
		l0.3,3.2c2.1-2.5,4.9-3.8,8.5-3.8c3.8,0,6.9,1.4,9,4.3s3.3,6.8,3.3,11.9V227.2z M1371.6,226.6c0-3.1-0.6-5.6-1.9-7.5
		c-1.3-1.8-3-2.8-5.4-2.8c-2.9,0-5,1.2-6.2,3.6v14c1.3,2.4,3.4,3.7,6.3,3.7c2.2,0,4-0.9,5.3-2.7C1371,233,1371.6,230.3,1371.6,226.6
		z"/>
	<path class="st3" d="M1401.1,217.6c-0.9-0.2-1.9-0.2-2.9-0.2c-3.2,0-5.4,1.2-6.5,3.7v21.5h-7.1v-31.5h6.8l0.2,3.5
		c1.7-2.7,4.1-4.1,7.1-4.1c1,0,1.8,0.1,2.5,0.4L1401.1,217.6z"/>
	<path class="st3" d="M1405.6,203c0-1.1,0.3-2,1-2.7c0.7-0.7,1.7-1.1,3-1.1c1.3,0,2.3,0.4,3,1.1c0.7,0.7,1,1.6,1,2.7
		c0,1.1-0.3,2-1,2.7s-1.7,1.1-3,1.1c-1.3,0-2.3-0.4-3-1.1C1405.9,204.9,1405.6,204.1,1405.6,203z M1413.1,242.6h-7.1v-31.5h7.1
		V242.6z"/>
	<path class="st3" d="M1438.4,234.1c0-1.3-0.5-2.2-1.6-2.9c-1-0.7-2.8-1.2-5.2-1.7c-2.4-0.5-4.4-1.1-6-1.9c-3.5-1.7-5.3-4.2-5.3-7.4
		c0-2.7,1.1-5,3.4-6.8c2.3-1.8,5.2-2.7,8.7-2.7c3.8,0,6.8,0.9,9.1,2.8c2.3,1.9,3.5,4.3,3.5,7.2h-7.1c0-1.4-0.5-2.5-1.5-3.4
		s-2.3-1.4-4-1.4c-1.6,0-2.8,0.4-3.8,1.1c-1,0.7-1.5,1.7-1.5,2.9c0,1.1,0.5,1.9,1.4,2.5c0.9,0.6,2.8,1.2,5.5,1.8
		c2.8,0.6,5,1.3,6.5,2.2s2.8,1.9,3.5,3s1.1,2.6,1.1,4.3c0,2.8-1.2,5.1-3.5,6.9c-2.3,1.8-5.4,2.6-9.2,2.6c-2.6,0-4.9-0.5-6.9-1.4
		c-2-0.9-3.6-2.2-4.7-3.8c-1.1-1.6-1.7-3.4-1.7-5.3h6.9c0.1,1.7,0.7,3,1.9,3.9c1.2,0.9,2.7,1.4,4.6,1.4c1.9,0,3.3-0.4,4.2-1.1
		S1438.4,235.2,1438.4,234.1z"/>
	<path class="st3" d="M1465.4,243.2c-4.5,0-8.1-1.4-10.9-4.2c-2.8-2.8-4.2-6.6-4.2-11.3v-0.9c0-3.1,0.6-5.9,1.8-8.4
		c1.2-2.5,2.9-4.4,5.1-5.8s4.6-2.1,7.3-2.1c4.3,0,7.6,1.4,9.9,4.1c2.3,2.7,3.5,6.6,3.5,11.6v2.9h-20.6c0.2,2.6,1.1,4.7,2.6,6.2
		s3.4,2.3,5.7,2.3c3.2,0,5.9-1.3,7.9-3.9l3.8,3.6c-1.3,1.9-2.9,3.3-5,4.4C1470.4,242.7,1468,243.2,1465.4,243.2z M1464.6,216.3
		c-1.9,0-3.5,0.7-4.7,2c-1.2,1.4-2,3.2-2.3,5.7h13.5v-0.5c-0.2-2.4-0.8-4.2-1.9-5.4C1468.1,216.9,1466.5,216.3,1464.6,216.3z"/>
</g>
</svg>
