<svg id="Layer_1" data-name="Layer 1" xmlns="http://www.w3.org/2000/svg" viewBox="0 0 283.544 279.856"><defs><style>.cls-1{fill:#414141;}.cls-1,.cls-2{fill-rule:evenodd;}.cls-2{fill:#3588c8;}</style></defs><polygon class="cls-1" points="222.545 232.864 204.742 232.864 204.742 223.722 250.29 223.722 250.29 232.864 232.488 232.864 232.488 279.856 222.545 279.856 222.545 232.864"/><polygon class="cls-1" points="86.664 247.057 114.812 247.057 114.812 255.959 86.664 255.959 86.664 270.954 118.821 270.954 118.821 279.856 76.881 279.856 76.881 247.057 86.664 247.057"/><polygon class="cls-2" points="76.881 223.722 118.421 223.722 118.421 232.623 86.664 232.623 76.881 232.623 76.881 223.722"/><polygon class="cls-1" points="3.689 223.722 12.817 223.722 42.823 262.534 42.823 223.722 52.606 223.722 52.606 279.856 44.359 279.856 13.472 239.92 13.472 279.856 3.689 279.856 3.689 223.722"/><polygon class="cls-1" points="142.455 159.89 170.603 159.89 170.603 168.791 142.455 168.791 142.455 183.787 174.612 183.787 174.612 192.688 132.672 192.688 132.672 159.89 142.455 159.89"/><polygon class="cls-2" points="132.672 136.555 174.211 136.555 174.211 145.456 142.455 145.456 132.672 145.456 132.672 136.555"/><path class="cls-1" d="M227.805,386.391h25.019a27.457,27.457,0,0,1,9.383,1.482A18.869,18.869,0,0,1,269.023,392a16.266,16.266,0,0,1,3.449,5.372,18.219,18.219,0,0,1,1.2,6.737v.16a18.146,18.146,0,0,1-1,6.216,16.236,16.236,0,0,1-2.766,4.89,16.618,16.618,0,0,1-4.21,3.609,20.834,20.834,0,0,1-5.413,2.285l15.156,21.251H263.811l-13.834-19.566H237.588v19.566h-9.783V386.391Zm24.258,27.826q5.312,0,8.447-2.54a8.35,8.35,0,0,0,3.14-6.883v-.16a8.253,8.253,0,0,0-3.06-6.963q-3.048-2.385-8.607-2.379h-14.4v18.925Z" transform="translate(-162.952 -249.836)"/><path class="cls-1" d="M186.368,443.326a35.394,35.394,0,0,1-12.429-2.205,33.941,33.941,0,0,1-10.987-6.776l5.935-7.058a34.406,34.406,0,0,0,8.259,5.413,22.733,22.733,0,0,0,9.463,1.885,12.225,12.225,0,0,0,7.257-1.925,6.009,6.009,0,0,0,2.687-5.132v-.159a6.516,6.516,0,0,0-.522-2.687,5.81,5.81,0,0,0-1.925-2.206,15.462,15.462,0,0,0-3.862-1.925,55.639,55.639,0,0,0-6.388-1.763,62.747,62.747,0,0,1-8-2.366,21.711,21.711,0,0,1-5.868-3.208,12.432,12.432,0,0,1-3.622-4.61,15.769,15.769,0,0,1-1.244-6.577v-.16a15.1,15.1,0,0,1,5.373-11.747,18.345,18.345,0,0,1,6.028-3.329,23.609,23.609,0,0,1,7.685-1.2,32.157,32.157,0,0,1,11.106,1.8,33.02,33.02,0,0,1,9.263,5.253l-5.293,7.457a34.528,34.528,0,0,0-7.618-4.291,20.669,20.669,0,0,0-7.618-1.483,10.523,10.523,0,0,0-6.736,1.925,5.851,5.851,0,0,0-2.406,4.731v.161a6.853,6.853,0,0,0,.561,2.847,5.55,5.55,0,0,0,2.045,2.245,17.77,17.77,0,0,0,4.1,1.885c1.75.588,3.955,1.2,6.642,1.843a63.178,63.178,0,0,1,7.832,2.487,19.563,19.563,0,0,1,5.667,3.328,13.157,13.157,0,0,1,3.421,4.571,14.74,14.74,0,0,1,1.163,6.054v.16a16.448,16.448,0,0,1-1.471,7.057,15.206,15.206,0,0,1-4.1,5.292,17.969,17.969,0,0,1-6.3,3.288A27.691,27.691,0,0,1,186.368,443.326Z" transform="translate(-162.952 -249.836)"/><path class="cls-2" d="M436.553,519.748h-36.2v9.943H446.5V249.836H166.641v137.13q.329-.3.671-.594a23.35,23.35,0,0,1,7.617-4.23q.821-.282,1.655-.5V259.78H436.553Z" transform="translate(-162.952 -249.836)"/><path class="cls-1" d="M326.657,510.4l13.394,19.29h11.628l-19.4-27.342-5.622,8.052Zm5.672-10.846,18.547-26H339.57L326.9,491.727Z" transform="translate(-162.952 -249.836)"/><polygon class="cls-2" points="162.344 258.605 167.597 251.08 162.584 243.85 148.631 223.722 137.003 223.722 156.651 251.308 136.202 279.855 147.509 279.855 162.344 258.605"/></svg>