<?xml version="1.0" encoding="utf-8"?>
<!-- Generator: Adobe Illustrator 26.3.1, SVG Export Plug-In . SVG Version: 6.00 Build 0)  -->
<svg version="1.1" id="レイヤー_1" xmlns="http://www.w3.org/2000/svg" xmlns:xlink="http://www.w3.org/1999/xlink" x="0px"
	 y="0px" viewBox="0 0 16 16" style="enable-background:new 0 0 16 16;" xml:space="preserve">
<style type="text/css">
	.st0{fill:#FFFFFF;}
</style>
<path class="st0" d="M8,0C3.6,0,0,3.6,0,8c0,3.5,2.3,6.5,5.5,7.6C5.9,15.7,6,15.4,6,15.2c0-0.2,0-0.8,0-1.5c-2,0.4-2.5-0.5-2.7-0.9
	c-0.1-0.2-0.5-0.9-0.8-1.1c-0.3-0.1-0.7-0.5,0-0.5c0.6,0,1.1,0.6,1.2,0.8c0.7,1.2,1.9,0.9,2.3,0.7c0.1-0.5,0.3-0.9,0.5-1.1
	c-1.8-0.2-3.6-0.9-3.6-3.9c0-0.9,0.3-1.6,0.8-2.2c-0.1-0.2-0.4-1,0.1-2.1c0,0,0.7-0.2,2.2,0.8C6.7,4,7.3,3.9,8,3.9S9.4,4,10,4.1
	c1.5-1,2.2-0.8,2.2-0.8c0.4,1.1,0.2,1.9,0.1,2.1c0.5,0.6,0.8,1.3,0.8,2.2c0,3.1-1.9,3.8-3.6,4C9.8,11.8,10,12.3,10,13
	c0,1.1,0,1.9,0,2.2c0,0.2,0.1,0.5,0.6,0.4C13.8,14.5,16,11.4,16,8C16,3.6,12.4,0,8,0z"/>
</svg>
