<?xml version="1.0" encoding="utf-8"?>
<!-- Generator: Adobe Illustrator 26.3.1, SVG Export Plug-In . SVG Version: 6.00 Build 0)  -->
<svg version="1.1" id="レイヤー_1" xmlns="http://www.w3.org/2000/svg" xmlns:xlink="http://www.w3.org/1999/xlink" x="0px"
	 y="0px" viewBox="0 0 16 16" style="enable-background:new 0 0 16 16;" xml:space="preserve">
<style type="text/css">
	.st0{fill:#FFFFFF;}
</style>
<path class="st0" d="M5,15c6,0,9.3-5,9.3-9.3c0-0.1,0-0.3,0-0.4c0.6-0.5,1.2-1,1.6-1.7c-0.6,0.3-1.2,0.4-1.9,0.5
	c0.7-0.4,1.2-1.1,1.4-1.8c-0.6,0.4-1.4,0.7-2.1,0.8c-1.2-1.3-3.3-1.4-4.6-0.1C8,3.7,7.6,4.9,7.9,6C5.2,5.9,2.8,4.7,1.1,2.6
	C0.2,4.1,0.7,6,2.1,7c-0.5,0-1-0.2-1.5-0.4v0c0,1.6,1.1,2.9,2.6,3.2C3,9.9,2.7,10,2.4,10c-0.2,0-0.4,0-0.6-0.1
	c0.4,1.3,1.7,2.3,3.1,2.3c-1.2,0.9-2.6,1.4-4.1,1.4c-0.3,0-0.5,0-0.8,0C1.5,14.5,3.2,15,5,15z"/>
</svg>
